<?xml version="1.0" standalone="no"?>
<!DOCTYPE svg PUBLIC "-//W3C//DTD SVG 20010904//EN"
 "http://www.w3.org/TR/2001/REC-SVG-20010904/DTD/svg10.dtd">
<svg version="1.0" xmlns="http://www.w3.org/2000/svg"
 width="289.000000pt" height="174.000000pt" viewBox="0 0 289.000000 174.000000"
 preserveAspectRatio="xMidYMid meet">
<metadata>
Created by potrace 1.10, written by Peter Selinger 2001-2011
</metadata>
<g transform="translate(0.000000,174.000000) scale(0.100000,-0.100000)"
fill="#000000" stroke="none">
<path d="M599 1090 c-118 -60 -153 -116 -109 -173 17 -22 20 -40 20 -146 0
-108 2 -123 20 -141 54 -54 220 18 220 95 0 15 9 26 28 34 15 7 40 23 55 37
l27 25 1 -53 c1 -29 0 -64 0 -78 -1 -14 7 -38 19 -53 26 -33 60 -35 122 -8 38
16 47 17 63 5 26 -19 65 -17 99 5 l30 20 22 -25 c23 -24 68 -33 78 -15 4 5 26
16 51 25 43 14 47 14 65 -4 24 -24 60 -25 102 -4 26 14 34 14 55 3 31 -17 77
-13 122 11 34 17 35 17 70 -7 32 -23 43 -25 108 -20 74 6 103 16 141 50 l22
20 23 -20 c34 -32 83 -53 121 -53 49 0 68 31 74 126 3 49 9 74 17 74 6 0 40
29 73 64 92 96 85 135 -43 220 -46 30 -71 33 -103 10 -21 -15 -25 -15 -42 1
-15 14 -28 15 -86 7 -46 -7 -73 -6 -82 1 -17 14 -112 3 -153 -18 -19 -10 -44
-27 -56 -38 -22 -20 -23 -20 -23 -1 0 11 -7 30 -16 42 -18 26 -83 30 -124 7
-19 -10 -28 -10 -38 -2 -18 14 -77 10 -112 -8 -25 -13 -29 -12 -45 5 -24 27
-69 25 -133 -5 l-54 -25 -32 25 c-51 39 -130 35 -225 -10 l-74 -36 -37 36
c-35 34 -38 35 -110 35 -67 -1 -83 -5 -151 -40z m245 -65 c37 -57 4 -148 -71
-195 -26 -17 -55 -32 -65 -36 -12 -4 -18 -15 -18 -37 0 -18 -4 -37 -8 -43 -9
-15 -99 -54 -106 -46 -3 3 -6 59 -6 124 0 107 -2 122 -22 149 -23 30 -23 31
-3 46 48 35 144 77 190 83 55 6 83 -5 109 -45z m846 -21 c0 -36 5 -108 11
-160 13 -107 6 -123 -58 -150 -43 -18 -41 -19 -49 24 -6 34 -46 106 -66 118
-4 3 -3 -7 2 -21 6 -15 10 -43 10 -63 0 -34 -4 -38 -42 -55 -23 -9 -46 -13
-50 -9 -11 11 -24 95 -33 209 -9 107 -6 112 66 148 50 26 59 24 59 -10 0 -25
27 -95 36 -95 3 0 3 17 -1 38 -4 28 -2 42 8 51 24 19 91 50 99 44 5 -2 8 -34
8 -69z m-511 31 c45 -51 37 -130 -17 -178 -26 -23 -20 -41 19 -57 32 -13 36
-27 17 -53 -18 -24 -79 -67 -95 -67 -7 0 -23 20 -35 45 -25 51 -38 58 -35 18
2 -28 -31 -55 -84 -68 l-25 -6 -3 122 c-2 104 -5 126 -22 147 -26 33 -15 45
85 94 107 51 152 52 195 3z m196 -141 l0 -177 -43 -12 c-23 -7 -49 -19 -57
-25 -13 -11 -15 4 -15 117 0 72 -3 151 -6 176 l-7 47 54 25 c30 14 59 25 64
25 6 0 10 -65 10 -176z m593 115 l3 -57 -45 -17 c-24 -9 -53 -27 -64 -39 -21
-23 -25 -57 -8 -68 17 -12 64 -9 85 4 33 20 51 3 51 -47 0 -53 -21 -79 -77
-94 -94 -26 -143 -2 -168 81 -21 70 -19 131 5 178 32 64 125 122 185 117 29
-2 30 -4 33 -58z m167 25 c8 -20 15 -51 16 -68 0 -29 3 -26 32 31 17 34 36 64
43 67 15 6 114 -62 114 -78 0 -18 -82 -101 -117 -120 -32 -16 -33 -19 -33 -75
0 -32 -3 -72 -6 -89 l-6 -31 -49 25 -49 24 0 67 c0 49 -6 79 -24 117 -13 28
-26 74 -29 103 l-4 52 41 4 c23 2 44 4 48 5 4 1 15 -14 23 -34z m-379 -18
c-22 -34 -36 -31 -36 7 0 34 1 35 25 24 21 -11 23 -14 11 -31z m287 -152 c4
-4 7 -40 7 -80 0 -68 -1 -72 -24 -76 -22 -4 -23 -3 -15 19 14 37 11 86 -7 112
-14 20 -22 22 -60 16 -24 -3 -48 -4 -54 0 -16 10 0 33 33 46 18 7 43 24 57 36
l25 23 15 -44 c8 -25 18 -48 23 -52z m-1153 -9 c0 -44 -1 -45 -22 -33 -13 7
-25 14 -27 15 -4 2 39 63 45 63 2 0 4 -20 4 -45z m340 -15 c0 -38 -1 -39 -20
-28 -23 15 -24 21 -8 48 19 30 28 24 28 -20z m14 -179 c-2 -2 -10 2 -19 9 -8
7 -22 10 -30 6 -22 -8 -19 7 5 24 11 8 20 21 21 30 0 8 6 -3 13 -25 7 -22 11
-42 10 -44z"/>
<path d="M696 954 c-9 -8 -16 -30 -16 -47 l1 -32 29 35 c17 19 30 40 30 47 0
18 -25 16 -44 -3z"/>
<path d="M1046 954 c-9 -8 -16 -30 -16 -47 l1 -32 29 33 c32 35 39 62 16 62
-8 0 -22 -7 -30 -16z"/>
<path d="M2389 1057 c48 -58 43 -91 -25 -171 -30 -36 -64 -70 -74 -76 -14 -8
-20 -27 -25 -87 -6 -61 -12 -81 -31 -100 -32 -32 -85 -30 -152 6 l-52 29 -46
-25 c-63 -35 -187 -39 -231 -7 -27 20 -29 20 -58 2 -33 -20 -105 -24 -136 -8
-14 8 -27 7 -48 -5 -38 -19 -68 -19 -105 0 -36 19 -57 19 -82 0 -25 -19 -93
-19 -115 1 -16 14 -20 14 -48 0 -36 -19 -61 -20 -95 -5 -20 9 -33 8 -66 -5
-51 -20 -89 -20 -120 0 -22 14 -22 12 3 -10 33 -30 69 -33 127 -10 33 13 46
14 66 5 32 -14 66 -14 98 0 20 9 32 8 60 -5 44 -21 50 -20 102 6 42 21 46 21
79 5 44 -21 77 -22 114 -3 17 9 32 11 42 5 22 -14 97 -10 130 7 28 14 33 14
75 -7 39 -18 56 -21 112 -15 37 4 87 17 112 29 l46 22 49 -27 c112 -62 177
-27 189 101 6 61 11 74 32 87 13 9 47 43 74 76 41 50 50 67 50 99 0 33 -7 47
-41 82 -39 40 -40 40 -10 4z"/>
<path d="M803 753 c-30 -17 -43 -31 -43 -47 0 -35 -29 -66 -84 -92 -59 -28
-111 -31 -146 -8 -22 14 -22 12 3 -10 33 -30 73 -33 138 -11 66 24 109 61 109
95 0 22 8 33 35 50 19 12 35 28 35 36 0 8 -1 14 -2 13 -2 -1 -22 -12 -45 -26z"/>
<path d="M2542 68 c-7 -7 -12 -20 -12 -29 0 -10 -6 -20 -12 -22 -8 -3 -6 -6 5
-6 16 -1 19 3 21 32 1 6 10 17 21 24 15 9 16 12 5 13 -9 0 -21 -5 -28 -12z"/>
<path d="M2589 63 c-10 -2 -19 -13 -22 -24 -7 -25 5 -25 21 1 13 21 32 27 32
11 0 -5 -7 -17 -16 -25 -17 -17 -8 -21 14 -7 15 9 13 43 -3 46 -5 2 -17 1 -26
-2z"/>
<path d="M2368 38 c-3 -21 -4 -21 -21 -4 -9 10 -23 15 -30 13 -9 -4 -8 -6 2
-6 11 -1 11 -4 0 -18 -13 -16 -12 -17 4 -4 9 7 17 9 17 3 0 -20 35 -5 38 16 2
12 1 22 -2 22 -2 0 -6 -10 -8 -22z"/>
<path d="M2490 46 c0 -9 -7 -13 -19 -11 -11 2 -22 -2 -24 -9 -3 -8 4 -11 24
-8 20 3 29 10 29 23 0 11 -2 19 -5 19 -3 0 -5 -6 -5 -14z"/>
</g>
</svg>
